<svg xmlns="http://www.w3.org/2000/svg" version="1.1" xmlns:xlink="http://www.w3.org/1999/xlink" xmlns:svgjs="http://svgjs.dev/svgjs" width="1440" height="720" preserveAspectRatio="none" viewBox="0 0 1440 720"><g mask="url(&quot;#SvgjsMask1826&quot;)" fill="none"><rect width="1440" height="720" x="0" y="0" fill="url(&quot;#SvgjsLinearGradient1827&quot;)"></rect><path d="M1107 329L1106 664" stroke-width="10" stroke="url(&quot;#SvgjsLinearGradient1828&quot;)" stroke-linecap="round" class="Down"></path><path d="M376 633L375 959" stroke-width="10" stroke="url(&quot;#SvgjsLinearGradient1829&quot;)" stroke-linecap="round" class="Up"></path><path d="M145 415L144 233" stroke-width="8" stroke="url(&quot;#SvgjsLinearGradient1829&quot;)" stroke-linecap="round" class="Up"></path><path d="M10 189L9 509" stroke-width="6" stroke="url(&quot;#SvgjsLinearGradient1829&quot;)" stroke-linecap="round" class="Up"></path><path d="M1288 64L1287 -322" stroke-width="6" stroke="url(&quot;#SvgjsLinearGradient1829&quot;)" stroke-linecap="round" class="Up"></path><path d="M1046 30L1045 313" stroke-width="6" stroke="url(&quot;#SvgjsLinearGradient1829&quot;)" stroke-linecap="round" class="Up"></path><path d="M892 508L891 200" stroke-width="10" stroke="url(&quot;#SvgjsLinearGradient1828&quot;)" stroke-linecap="round" class="Down"></path><path d="M467 137L466 -329" stroke-width="6" stroke="url(&quot;#SvgjsLinearGradient1829&quot;)" stroke-linecap="round" class="Up"></path><path d="M691 261L690 -159" stroke-width="6" stroke="url(&quot;#SvgjsLinearGradient1829&quot;)" stroke-linecap="round" class="Up"></path><path d="M1107 412L1106 -56" stroke-width="10" stroke="url(&quot;#SvgjsLinearGradient1828&quot;)" stroke-linecap="round" class="Down"></path><path d="M272 657L271 1086" stroke-width="10" stroke="url(&quot;#SvgjsLinearGradient1828&quot;)" stroke-linecap="round" class="Down"></path><path d="M377 256L376 713" stroke-width="6" stroke="url(&quot;#SvgjsLinearGradient1829&quot;)" stroke-linecap="round" class="Up"></path><path d="M612 487L611 186" stroke-width="10" stroke="url(&quot;#SvgjsLinearGradient1829&quot;)" stroke-linecap="round" class="Up"></path><path d="M1331 116L1330 641" stroke-width="6" stroke="url(&quot;#SvgjsLinearGradient1829&quot;)" stroke-linecap="round" class="Up"></path><path d="M364 703L363 961" stroke-width="8" stroke="url(&quot;#SvgjsLinearGradient1829&quot;)" stroke-linecap="round" class="Up"></path><path d="M801 388L800 -57" stroke-width="10" stroke="url(&quot;#SvgjsLinearGradient1828&quot;)" stroke-linecap="round" class="Down"></path><path d="M359 258L358 -227" stroke-width="8" stroke="url(&quot;#SvgjsLinearGradient1828&quot;)" stroke-linecap="round" class="Down"></path><path d="M886 677L885 1127" stroke-width="8" stroke="url(&quot;#SvgjsLinearGradient1829&quot;)" stroke-linecap="round" class="Up"></path><path d="M1170 473L1169 847" stroke-width="10" stroke="url(&quot;#SvgjsLinearGradient1829&quot;)" stroke-linecap="round" class="Up"></path><path d="M26 178L25 -8" stroke-width="6" stroke="url(&quot;#SvgjsLinearGradient1829&quot;)" stroke-linecap="round" class="Up"></path><path d="M1409 121L1408 -249" stroke-width="10" stroke="url(&quot;#SvgjsLinearGradient1829&quot;)" stroke-linecap="round" class="Up"></path><path d="M30 166L29 -259" stroke-width="6" stroke="url(&quot;#SvgjsLinearGradient1828&quot;)" stroke-linecap="round" class="Down"></path><path d="M391 601L390 1138" stroke-width="8" stroke="url(&quot;#SvgjsLinearGradient1829&quot;)" stroke-linecap="round" class="Up"></path><path d="M837 275L836 -168" stroke-width="8" stroke="url(&quot;#SvgjsLinearGradient1829&quot;)" stroke-linecap="round" class="Up"></path><path d="M37 447L36 -7" stroke-width="8" stroke="url(&quot;#SvgjsLinearGradient1828&quot;)" stroke-linecap="round" class="Down"></path><path d="M630 154L629 -42" stroke-width="8" stroke="url(&quot;#SvgjsLinearGradient1828&quot;)" stroke-linecap="round" class="Down"></path><path d="M680 253L679 -40" stroke-width="6" stroke="url(&quot;#SvgjsLinearGradient1828&quot;)" stroke-linecap="round" class="Down"></path><path d="M117 45L116 505" stroke-width="10" stroke="url(&quot;#SvgjsLinearGradient1829&quot;)" stroke-linecap="round" class="Up"></path><path d="M138 225L137 672" stroke-width="10" stroke="url(&quot;#SvgjsLinearGradient1829&quot;)" stroke-linecap="round" class="Up"></path><path d="M810 514L809 111" stroke-width="6" stroke="url(&quot;#SvgjsLinearGradient1828&quot;)" stroke-linecap="round" class="Down"></path><path d="M1414 627L1413 973" stroke-width="8" stroke="url(&quot;#SvgjsLinearGradient1829&quot;)" stroke-linecap="round" class="Up"></path><path d="M421 322L420 57" stroke-width="6" stroke="url(&quot;#SvgjsLinearGradient1828&quot;)" stroke-linecap="round" class="Down"></path><path d="M140 532L139 156" stroke-width="8" stroke="url(&quot;#SvgjsLinearGradient1828&quot;)" stroke-linecap="round" class="Down"></path><path d="M699 246L698 12" stroke-width="10" stroke="url(&quot;#SvgjsLinearGradient1829&quot;)" stroke-linecap="round" class="Up"></path><path d="M708 643L707 190" stroke-width="10" stroke="url(&quot;#SvgjsLinearGradient1829&quot;)" stroke-linecap="round" class="Up"></path><path d="M40 382L39 -62" stroke-width="6" stroke="url(&quot;#SvgjsLinearGradient1829&quot;)" stroke-linecap="round" class="Up"></path></g><defs><mask id="SvgjsMask1826"><rect width="1440" height="720" fill="#ffffff"></rect></mask><linearGradient x1="87.5%" y1="-25%" x2="12.5%" y2="125%" gradientUnits="userSpaceOnUse" id="SvgjsLinearGradient1827"><stop stop-color="rgba(18, 55, 94, 1)" offset="0"></stop><stop stop-color="rgba(0, 13, 29, 1)" offset="1"></stop></linearGradient><linearGradient x1="0%" y1="0%" x2="0%" y2="100%" id="SvgjsLinearGradient1828"><stop stop-color="rgba(28, 83, 142, 0)" offset="0"></stop><stop stop-color="#1c538e" offset="1"></stop></linearGradient><linearGradient x1="0%" y1="100%" x2="0%" y2="0%" id="SvgjsLinearGradient1829"><stop stop-color="rgba(28, 83, 142, 0)" offset="0"></stop><stop stop-color="#1c538e" offset="1"></stop></linearGradient></defs></svg>